#!OML:ASF F:\VICON\USERDATA\INSTALL\Justin_Nancy\Justin_Nancy.ASF
:FULLY-SPECIFIED
:DEGREES
456
root -16.8742 17.5003 12.9525 198.366 -85.9037 -198.104
lowerback 5.60328 1.23262 -1.94556
upperback -0.0547364 1.56982 2.06219
thorax -3.31059 0.824176 3.09204
lowerneck -15.3731 -3.89301 -8.62007
upperneck 24.9248 -4.57441 3.65349
head 10.8707 -2.61243 2.10509
rclavicle -1.98536e-014 1.59028e-015
rhumerus -32.2093 -12.3261 -77.7795
rradius 30.1883
rwrist 7.20958
rhand -13.9142 12.9361
rfingers 7.12502
rthumb 12.2119 -16.6874
lclavicle -1.98536e-014 1.59028e-015
lhumerus -31.8653 11.5256 86.1687
lradius 22.7486
lwrist -8.79665
lhand -15.2149 26.6494
lfingers 7.12502
lthumb 10.9575 56.3435
rfemur -12.5613 -1.01536 19.8472
rtibia 65.9911
rfoot 8.44955 -3.60955
rtoes 11.8555
lfemur -15.2225 -2.054 -25.1055
ltibia 26.4133
lfoot -7.909 3.2008
ltoes 8.90852
457
root -17.0117 17.4944 12.983 210.223 -85.6904 -210.131
lowerback 5.73057 1.14109 -2.69397
upperback -0.0307946 1.39251 1.85569
thorax -3.35825 0.748441 3.3139
lowerneck -15.4076 -3.85232 -8.86148
upperneck 24.9692 -4.46317 3.70214
head 10.8946 -2.57967 2.17888
rclavicle 8.72168e-015 9.54166e-015
rhumerus -32.3152 -12.5817 -77.501
rradius 29.7155
rwrist 7.9896
rhand -13.3498 13.5433
rfingers 7.12502
rthumb 12.756 -16.047
lclavicle 8.72168e-015 9.54166e-015
lhumerus -31.6603 12.269 85.7599
lradius 22.4615
lwrist -9.90817
lhand -15.2528 25.5893
lfingers 7.12502
lthumb 10.9209 55.2853
rfemur -13.8346 -1.27822 18.6534
rtibia 67.3932
rfoot 7.24748 -4.25429
rtoes 13.0425
lfemur -14.4491 -2.35318 -26.2966
ltibia 26.2328
lfoot -8.18557 3.14932
ltoes 9.03675
458
root -17.151 17.4874 12.9903 220.219 -85.3823 -220.153
lowerback 5.64676 1.28143 -3.44814
upperback 0.0133399 1.52134 1.42216
thorax -3.28377 0.820973 3.27944
lowerneck -15.4899 -4.07684 -8.13742
upperneck 24.9692 -4.89379 3.42283
head 10.9117 -2.73781 1.89271
rclavicle -1.62258e-014 -2.06736e-014
rhumerus -32.6052 -13.6696 -77.504
rradius 29.4877
rwrist 8.48051
rhand -13.3112 13.5887
rfingers 7.12502
rthumb 12.7932 -15.9993
lclavicle -1.62258e-014 -2.06736e-014
lhumerus -31.126 12.4269 85.2385
lradius 22.0816
lwrist -11.5224
lhand -14.2172 24.7878
lfingers 7.12502
lthumb 11.9197 54.4285
rfemur -15.2105 -1.8682 17.5785
rtibia 68.6386
rfoot 6.0485 -4.74913
rtoes 13.2643
lfemur -13.7937 -2.5048 -27.3256
ltibia 25.9482
lfoot -8.41854 3.11793
ltoes 8.60418
459
root -17.2958 17.4816 12.9654 223.875 -85.4421 -223.786
lowerback 5.51148 1.42504 -3.78057
upperback -0.0338317 1.68792 1.13559
thorax -3.27162 0.90821 3.15672
lowerneck -15.4068 -4.25133 -7.29783
upperneck 25.0215 -5.31834 3.17874
head 10.9071 -2.88369 1.60374
rclavicle 2.56929e-014 3.97569e-015
rhumerus -33.201 -15.5051 -77.2686
rradius 29.312
rwrist 9.30491
rhand -13.3904 13.563
rfingers 7.12502
rthumb 12.7168 -16.0298
lclavicle 2.56929e-014 3.97569e-015
lhumerus -30.7765 11.6975 84.973
lradius 21.9072
lwrist -12.1924
lhand -13.6224 24.5852
lfingers 7.12502
lthumb 12.4932 54.1918
rfemur -16.4214 -2.38177 17.4913
rtibia 69.5574
rfoot 4.9623 -5.4716
rtoes 12.7984
lfemur -13.1442 -2.41932 -27.5078
ltibia 25.6324
lfoot -8.74025 2.8976
ltoes 8.11883
460
root -17.4415 17.472 12.9666 225.657 -85.3546 -225.753
lowerback 5.6896 1.51982 -3.7693
upperback -0.124865 1.80081 0.92876
thorax -3.46834 0.967764 2.92063
lowerneck -15.2592 -4.34302 -7.08931
upperneck 25.1938 -5.52949 3.15325
head 10.9469 -2.97076 1.53099
rclavicle -2.14439e-014 0
rhumerus -34.0612 -17.2857 -76.6118
rradius 29.2672
rwrist 10.1466
rhand -12.6103 14.044
rfingers 7.12502
rthumb 13.4688 -15.5005
lclavicle -2.14439e-014 0
lhumerus -30.7825 10.9822 84.8768
lradius 21.9985
lwrist -12.5046
lhand -13.307 25.278
lfingers 7.12502
lthumb 12.7972 54.8658
rfemur -17.4116 -2.62491 17.2941
rtibia 70.2539
rfoot 3.90694 -6.13011
rtoes 13.3053
lfemur -12.3225 -2.49928 -27.8172
ltibia 25.4471
lfoot -8.97106 3.06683
ltoes 6.32701
461
root -17.5833 17.463 12.9821 226.623 -85.4112 -226.993
lowerback 5.88239 1.38776 -3.72267
upperback -0.109872 1.623 1.00917
thorax -3.548 0.880226 2.99033
lowerneck -15.1183 -4.23575 -7.22374
upperneck 25.2924 -5.34326 3.07598
head 10.9476 -2.91467 1.55452
rclavicle -1.42131e-014 -7.95139e-015
rhumerus -34.5134 -17.7208 -76.1846
rradius 29.163
rwrist 10.6708
rhand -12.687 14.392
rfingers 7.12502
rthumb 13.3949 -15.1574
lclavicle -1.42131e-014 -7.95139e-015
lhumerus -30.7321 11.7077 84.5715
lradius 21.9238
lwrist -13.4877
lhand -12.5956 25.2267
lfingers 7.12502
lthumb 13.483 54.7703
rfemur -18.2627 -2.82559 17.1663
rtibia 70.7254
rfoot 2.86321 -6.71502
rtoes 13.8534
lfemur -11.5013 -2.82111 -28.0758
ltibia 25.4329
lfoot -9.20014 3.60263
ltoes 3.41938
462
root -17.724 17.4606 12.992 230.009 -85.5346 -230.419
lowerback 5.7771 1.1274 -3.93516
upperback -0.0690892 1.27007 1.13618
thorax -3.42589 0.706438 3.27669
lowerneck -15.1296 -4.09595 -7.30183
upperneck 25.2679 -5.07454 2.9087
head 10.923 -2.81999 1.54565
rclavicle -4.64659e-015 1.11319e-014
rhumerus -34.5988 -17.6582 -76.0299
rradius 28.9925
rwrist 11.1128
rhand -13.6015 13.7965
rfingers 7.12502
rthumb 12.5133 -15.8088
lclavicle -4.64659e-015 1.11319e-014
lhumerus -30.5119 11.7894 84.6938
lradius 21.9639
lwrist -12.7388
lhand -12.9369 25.0766
lfingers 7.12502
lthumb 13.154 54.6417
rfemur -19.2749 -3.00609 17.0571
rtibia 71.0248
rfoot 1.93215 -7.00493
rtoes 13.4167
lfemur -10.9456 -2.91834 -28.2994
ltibia 25.4554
lfoot -9.64745 3.75898
ltoes 1.67905
463
root -17.8544 17.4527 12.9991 232.735 -85.7282 -233.212
lowerback 5.90531 0.909261 -4.14068
upperback -0.115297 0.966121 1.33274
thorax -3.52684 0.563574 3.62329
lowerneck -15.1954 -4.05177 -7.33514
upperneck 25.4501 -4.93054 2.61548
head 10.9897 -2.7976 1.46375
rclavicle 8.59744e-015 1.90833e-014
rhumerus -34.8003 -17.9229 -75.6872
rradius 28.781
rwrist 11.549
rhand -13.7623 13.5001
rfingers 7.12502
rthumb 12.3583 -16.1146
lclavicle 8.59744e-015 1.90833e-014
lhumerus -30.4784 11.4697 85.0622
lradius 22.2233
lwrist -11.4795
lhand -13.8585 24.958
lfingers 7.12502
lthumb 12.2656 54.5783
rfemur -20.2502 -3.18423 17.0769
rtibia 71.1452
rfoot 1.01134 -6.9351
rtoes 13.9378
lfemur -10.4463 -2.47397 -28.3082
ltibia 25.5801
lfoot -10.3849 3.4013
ltoes 1.56275
464
root -17.9831 17.4391 13.0079 235.226 -85.7778 -235.813
lowerback 6.04601 0.701776 -4.31589
upperback -0.126344 0.67501 1.45335
thorax -3.59393 0.424637 3.87416
lowerneck -15.269 -3.96343 -7.52507
upperneck 25.6063 -4.73149 2.51884
head 11.0553 -2.74131 1.48723
rclavicle 3.52843e-015 -4.77083e-015
rhumerus -35.0606 -18.4598 -75.3977
rradius 28.6787
rwrist 11.5357
rhand -13.8471 13.7146
rfingers 7.12502
rthumb 12.2765 -15.905
lclavicle 3.52843e-015 -4.77083e-015
lhumerus -30.3518 11.1198 85.2809
lradius 22.3738
lwrist -10.5678
lhand -14.3761 24.8158
lfingers 7.12502
lthumb 11.7665 54.4653
rfemur -21.2167 -3.4177 16.974
rtibia 71.135
rfoot 0.118837 -6.71789
rtoes 12.7654
lfemur -9.91251 -2.44249 -28.433
ltibia 25.7198
lfoot -11.0804 3.43528
ltoes 4.02459
465
root -18.1123 17.4257 13.0182 236.645 -85.9415 -237.282
lowerback 6.12954 0.604426 -3.97864
upperback -0.138112 0.560918 1.31525
thorax -3.63627 0.361595 3.54953
lowerneck -15.314 -3.87287 -7.27066
upperneck 25.6506 -4.65667 2.47203
head 11.0668 -2.68905 1.43792
rclavicle 1.56543e-015 1.27222e-014
rhumerus -35.4523 -18.7711 -75.5858
rradius 28.761
rwrist 10.2588
rhand -14.1036 13.7622
rfingers 7.12502
rthumb 12.0292 -15.872
lclavicle 1.56543e-015 1.27222e-014
lhumerus -30.0843 10.0666 85.2903
lradius 22.4947
lwrist -9.92158
lhand -14.6021 25.0482
lfingers 7.12502
lthumb 11.5485 54.71
rfemur -22.1569 -3.42233 17.0949
rtibia 70.945
rfoot -0.847461 -6.61899
rtoes 11.5312
lfemur -9.44441 -2.68717 -28.4565
ltibia 25.8713
lfoot -12.0068 3.5181
ltoes 10.5143
466
root -18.2404 17.4152 13.0241 242.217 -85.8703 -242.754
lowerback 6.0792 0.542196 -4.01485
upperback -0.171777 0.467987 1.04639
thorax -3.63215 0.314407 3.29869
lowerneck -15.2606 -3.91782 -6.98617
upperneck 25.5056 -4.81957 2.56696
head 11.0038 -2.72075 1.40282
rclavicle -2.93207e-015 -7.95139e-015
rhumerus -35.7138 -18.5229 -75.9941
rradius 28.8501
rwrist 9.1014
rhand -14.4751 13.2943
rfingers 7.12502
rthumb 11.671 -16.3606
lclavicle -2.93207e-015 -7.95139e-015
lhumerus -29.706 9.63507 85.105
lradius 22.5222
lwrist -10.3442
lhand -14.334 24.7844
lfingers 7.12502
lthumb 11.8071 54.4316
rfemur -23.2679 -3.34238 16.9079
rtibia 70.6803
rfoot -1.70901 -6.55154
rtoes 11.9183
lfemur -9.14269 -2.59546 -28.7828
ltibia 25.9892
lfoot -12.9322 2.87972
ltoes 17.9414
